<svg width="45" height="45" viewBox="0 0 45 45" fill="none" xmlns="http://www.w3.org/2000/svg">
<path d="M32.9038 1.91894C34.6603 0.162438 37.5082 0.162438 39.2647 1.91894L43.0812 5.73546C44.8377 7.49196 44.8377 10.3398 43.0812 12.0963L41.2439 13.9336C40.8534 14.3241 40.2202 14.3241 39.8297 13.9336L31.0666 5.17039C30.676 4.77987 30.676 4.1467 31.0666 3.75618L32.9038 1.91894Z" fill="#EEEEEE"/>
<path d="M26.4719 8.35082C26.8624 7.9603 27.4956 7.9603 27.8861 8.35082L36.6493 17.114C37.0398 17.5045 37.0398 18.1377 36.6493 18.5282L18.9809 36.1966C18.5904 36.5871 17.9572 36.5871 17.5667 36.1966L8.80355 27.4334C8.41302 27.0429 8.41302 26.4097 8.80355 26.0192L26.4719 8.35082Z" fill="#EEEEEE"/>
<path d="M0.459775 43.2754C0.199189 44.0572 0.942926 44.8009 1.72468 44.5403L13.5584 40.5958C14.2636 40.3607 14.4749 39.4656 13.9493 38.94L6.06013 31.0509C5.53448 30.5252 4.63942 30.7365 4.40434 31.4417L0.459775 43.2754Z" fill="#EEEEEE"/>
</svg>
