<svg width="66" height="50" viewBox="0 0 66 50" fill="none" xmlns="http://www.w3.org/2000/svg">
<path d="M0.5 5C0.5 2.23858 2.73858 0 5.5 0H60.5C63.2614 0 65.5 2.23858 65.5 5C65.5 7.76143 63.2614 10 60.5 10H5.5C2.73857 10 0.5 7.76143 0.5 5Z" fill="#EEEEEE"/>
<path d="M0.5 25C0.5 22.2386 2.73858 20 5.5 20H60.5C63.2614 20 65.5 22.2386 65.5 25C65.5 27.7614 63.2614 30 60.5 30H5.5C2.73857 30 0.5 27.7614 0.5 25Z" fill="#EEEEEE"/>
<path d="M5.5 40C2.73858 40 0.5 42.2386 0.5 45C0.5 47.7614 2.73857 50 5.5 50H60.5C63.2614 50 65.5 47.7614 65.5 45C65.5 42.2386 63.2614 40 60.5 40H5.5Z" fill="#EEEEEE"/>
</svg>
