<svg width="48" height="48" viewBox="0 0 48 48" fill="none" xmlns="http://www.w3.org/2000/svg">
<path d="M41.9995 9C41.9995 7.34315 40.6564 6 38.9995 6H8.9995C8.83474 6 8.67081 6.00362 8.50781 6.0108C9.74027 2.50958 13.0768 0 16.9995 0H38.9995C43.9701 0 47.9995 4.02944 47.9995 9V31C47.9995 34.9227 45.4899 38.2592 41.9887 39.4917C41.9959 39.3287 41.9995 39.1648 41.9995 39V9Z" fill="#EEEEEE"/>
<path fill-rule="evenodd" clip-rule="evenodd" d="M-0.000488281 17C-0.000488281 12.0294 4.02895 8 8.99951 8H30.9995C35.9701 8 39.9995 12.0294 39.9995 17V39C39.9995 43.9706 35.9701 48 30.9995 48H8.99951C4.02895 48 -0.000488281 43.9706 -0.000488281 39V17ZM8.99951 14H30.9995C32.6564 14 33.9995 15.3431 33.9995 17V39C33.9995 40.6569 32.6564 42 30.9995 42H8.99951C7.34266 42 5.99951 40.6569 5.99951 39V17C5.99951 15.3431 7.34266 14 8.99951 14Z" fill="#EEEEEE"/>
</svg>
