<svg width="41" height="48" viewBox="0 0 41 48" fill="none" xmlns="http://www.w3.org/2000/svg">
<path d="M16.9989 4C16.9989 1.79086 18.7897 0 20.9989 0C23.208 0 24.9989 1.79086 24.9989 4V20H29.0819C30.6215 20 31.5837 21.6667 30.8139 23L22.731 37C21.9612 38.3333 20.0367 38.3333 19.2669 37L11.184 23C10.4142 21.6667 11.3765 20 12.9161 20H16.9989V4Z" fill="#EEEEEE"/>
<path d="M0.998779 34C0.998779 31.7909 2.78964 30 4.99878 30C7.20792 30 8.99878 31.7909 8.99878 34V40H32.9988V34C32.9988 31.7909 34.7896 30 36.9988 30C39.2079 30 40.9988 31.7909 40.9988 34V44C40.9988 46.2091 39.2079 48 36.9988 48H4.99878C2.78964 48 0.998779 46.2091 0.998779 44V34Z" fill="#EEEEEE"/>
</svg>
