<svg width="49" height="46" viewBox="0 0 49 46" fill="none" xmlns="http://www.w3.org/2000/svg">
<path fill-rule="evenodd" clip-rule="evenodd" d="M26.7537 1.04288C25.5981 0.44286 24.2228 0.44286 23.0672 1.04288L3.15586 11.3814C1.83072 12.0695 0.999118 13.4383 0.999118 14.9314C0.999118 16.4245 1.83072 17.7934 3.15586 18.4814L23.2445 28.9121C24.4001 29.5121 25.7755 29.5121 26.9311 28.9121L46.8424 18.5735C48.1675 17.8855 48.9991 16.5166 48.9991 15.0235C48.9991 13.5304 48.1675 12.1616 46.8424 11.4735L26.7537 1.04288ZM25.0878 20.855L13.6794 14.9314L24.9104 9.09993L36.3188 15.0235L25.0878 20.855Z" fill="#EEEEEE"/>
<path d="M6.84238 27.42C4.88178 26.402 2.46714 27.1694 1.44913 29.13C0.431129 31.0906 1.19526 33.502 3.15586 34.52L23.2445 44.9561C24.4001 45.5561 25.7755 45.5582 26.9311 44.9582L46.8424 34.6182C48.803 33.6002 49.5671 31.1788 48.5491 29.2182C47.5311 27.2576 45.1165 26.5002 43.1559 27.5182L25.0878 36.9L6.84238 27.42Z" fill="#EEEEEE"/>
</svg>
