<svg width="48" height="24" viewBox="0 0 48 24" fill="none" xmlns="http://www.w3.org/2000/svg">
<path d="M13.9993 0C16.2084 0 17.9993 1.79086 17.9993 4C17.9993 6.20914 16.2084 8 13.9993 8H11.9993C9.79013 8 7.99927 9.79086 7.99927 12C7.99927 14.2091 9.79013 16 11.9993 16H13.9993C16.2084 16 17.9993 17.7909 17.9993 20C17.9993 22.2091 16.2084 24 13.9993 24H11.9993C5.37185 24 -0.000732422 18.6274 -0.000732422 12C-0.000732422 5.37258 5.37185 0 11.9993 0H13.9993Z" fill="#EEEEEE"/>
<path d="M33.9993 16C31.7901 16 29.9993 17.7909 29.9993 20C29.9993 22.2091 31.7901 24 33.9993 24H35.9993C42.6267 24 47.9993 18.6274 47.9993 12C47.9993 5.37258 42.6267 0 35.9993 0H33.9993C31.7901 0 29.9993 1.79086 29.9993 4C29.9993 6.20914 31.7901 8 33.9993 8H35.9993C38.2084 8 39.9993 9.79086 39.9993 12C39.9993 14.2091 38.2084 16 35.9993 16H33.9993Z" fill="#EEEEEE"/>
<path d="M19.9993 8C17.7901 8 15.9993 9.79086 15.9993 12C15.9993 14.2091 17.7901 16 19.9993 16H27.9993C30.2084 16 31.9993 14.2091 31.9993 12C31.9993 9.79086 30.2084 8 27.9993 8H19.9993Z" fill="#EEEEEE"/>
</svg>
