<svg width="48" height="48" viewBox="0 0 48 48" fill="none" xmlns="http://www.w3.org/2000/svg">
<path d="M9 8H23.0671C22.3864 6.82332 21.9968 5.45717 21.9968 4C21.9968 2.54283 22.3864 1.17668 23.0671 0H9C4.02944 0 0 4.02944 0 9V39C0 43.9706 4.02944 48 9 48H39C43.9706 48 48 43.9706 48 39V24.9279C46.8226 25.6097 45.4552 26 43.9968 26C42.541 26 41.176 25.6111 40 24.9316V39C40 39.5523 39.5523 40 39 40H9C8.44772 40 8 39.5523 8 39V9C8 8.44772 8.44772 8 9 8Z" fill="#EEEEEE"/>
<path d="M39.9968 13.3604V18C39.9968 20.2092 41.7878 22 43.9968 22C46.2058 22 47.9968 20.2092 47.9968 18V9C47.9968 4.02944 43.9673 0 38.9968 0H29.9968C27.7878 0 25.9968 1.79083 25.9968 4C25.9968 6.20917 27.7878 8 29.9968 8H34.1748L17.253 25.06C15.7091 26.6221 15.7201 29.1371 17.273 30.69C18.8439 32.2608 21.3984 32.247 22.953 30.66L39.9968 13.3604Z" fill="#EEEEEE"/>
</svg>
