<svg width="21" height="21" viewBox="0 0 21 21" fill="none" xmlns="http://www.w3.org/2000/svg">
<path fill-rule="evenodd" clip-rule="evenodd" d="M10.5 20.5C16.0228 20.5 20.5 16.0228 20.5 10.5C20.5 4.97715 16.0228 0.5 10.5 0.5C4.97715 0.5 0.5 4.97715 0.5 10.5C0.5 16.0228 4.97715 20.5 10.5 20.5ZM8.5 7.5C8.5 8.60457 7.60457 9.5 6.5 9.5C5.39543 9.5 4.5 8.60457 4.5 7.5C4.5 6.39543 5.39543 5.5 6.5 5.5C7.60457 5.5 8.5 6.39543 8.5 7.5ZM16.5 7.5C16.5 8.60457 15.6046 9.5 14.5 9.5C13.3954 9.5 12.5 8.60457 12.5 7.5C12.5 6.39543 13.3954 5.5 14.5 5.5C15.6046 5.5 16.5 6.39543 16.5 7.5ZM6.5 10.5C7.32843 10.5 8 11.1716 8 12C8 13.3807 9.11929 14.5 10.5 14.5C11.8807 14.5 13 13.3807 13 12C13 11.1716 13.6716 10.5 14.5 10.5C15.3284 10.5 16 11.1716 16 12C16 15.0376 13.5376 17.5 10.5 17.5C7.46243 17.5 5 15.0376 5 12C5 11.1716 5.67157 10.5 6.5 10.5Z" fill="#EEEEEE"/>
</svg>
